<?xml version="1.0" ?><svg viewBox="0 0 64 64" xmlns="http://www.w3.org/2000/svg"><defs><style>.cls-1{fill:#dbeffc;}.cls-2{fill:#fff;}.cls-2,.cls-3,.cls-4,.cls-5,.cls-7{stroke:#4c241d;stroke-linecap:round;stroke-linejoin:round;stroke-width:2px;}.cls-3{fill:#6b4f5b;}.cls-4{fill:none;}.cls-5{fill:#a9ba5a;}.cls-6{fill:#4c241d;}.cls-7{fill:#b5a19c;}</style></defs><g id="purchase-mobile"><circle class="cls-1" cx="26.5" cy="31.5" r="20"/><path class="cls-2" d="M30.9262,6H9.0739A4.0738,4.0738,0,0,0,5,10.0739V55.9261A4.0738,4.0738,0,0,0,9.0739,60H30.9261A4.0738,4.0738,0,0,0,35,55.9261V10.0738A4.0738,4.0738,0,0,0,30.9262,6Z"/><path class="cls-3" d="M14.4039,6H25.5961A.4039.4039,0,0,1,26,6.4039v0A2.5961,2.5961,0,0,1,23.4039,9H16.5961A2.5961,2.5961,0,0,1,14,6.4039v0A.4039.4039,0,0,1,14.4039,6Z"/><line class="cls-4" x1="15" x2="25" y1="57" y2="57"/><rect class="cls-5" height="12" rx="6" width="37" x="12" y="38"/><circle class="cls-4" cx="52" cy="29" r="2"/><circle class="cls-6" cx="51.5" cy="13.5" r="1.1323"/><line class="cls-4" x1="43.5858" x2="46.4142" y1="13.5858" y2="16.4142"/><line class="cls-4" x1="46.4142" x2="43.5858" y1="13.5858" y2="16.4142"/><polyline class="cls-4" points="23 41 17 41 17 44 23 44 23 47 17 47"/><line class="cls-4" x1="20" x2="20" y1="39" y2="49"/><line class="cls-4" x1="27" x2="44" y1="44" y2="44"/><polygon class="cls-2" points="28.434 27.091 14.434 27.091 12.434 19.091 30.434 19.091 28.434 27.091"/><circle class="cls-7" cx="16.9343" cy="29.5912" r="1.5"/><circle class="cls-7" cx="25.9343" cy="29.5912" r="1.5"/><polyline class="cls-4" points="8.434 15.091 11.434 15.091 12.434 19.091"/></g></svg>